<?xml version="1.0" standalone="no"?><!DOCTYPE svg PUBLIC "-//W3C//DTD SVG 1.1//EN" "http://www.w3.org/Graphics/SVG/1.1/DTD/svg11.dtd"><svg t="1521969420977" class="icon" style="" viewBox="0 0 1024 1024" version="1.1" xmlns="http://www.w3.org/2000/svg" p-id="2055" xmlns:xlink="http://www.w3.org/1999/xlink" width="200" height="200"><defs><style type="text/css"></style></defs><path d="M1013.101773 969.343159l-270.108516-238.934304c74.060603-77.673315 119.918741-182.675051 119.918741-298.398384C862.882863 193.7754 669.719293 0 432.241728 0 194.764162 0 1.571457 193.7754 1.571457 432.01047c0 238.118531 193.192705 432.01047 430.670271 432.01047 99.145645 0 190.337497-34.145958 263.203574-90.783964l272.526702 241.381626c6.263977 6.263977 14.39258 9.381398 22.579452 9.381398 8.128603 0 16.34461-3.117421 22.521182-9.381398C1025.542322 1002.119783 1025.542322 981.841978 1013.101773 969.343159zM65.376618 432.01047c0-202.92372 164.582354-368.0305 366.865109-368.0305 202.341025 0 366.865109 165.10678 366.865109 368.0305s-164.524085 367.972231-366.865109 367.972231C229.958972 799.982701 65.376618 634.934191 65.376618 432.01047z" fill="#333333" p-id="2056"></path></svg>