<?xml version="1.0" standalone="no"?><!DOCTYPE svg PUBLIC "-//W3C//DTD SVG 1.1//EN" "http://www.w3.org/Graphics/SVG/1.1/DTD/svg11.dtd"><svg t="1522070558322" class="icon" style="" viewBox="0 0 1024 1024" version="1.1" xmlns="http://www.w3.org/2000/svg" p-id="2932" xmlns:xlink="http://www.w3.org/1999/xlink" width="200" height="200"><defs><style type="text/css"></style></defs><path d="M768 883.2c-32 0-64-12.8-89.6-38.4l-166.4-166.4-166.4 166.4c-25.6 25.6-51.2 38.4-89.6 38.4s-64-12.8-89.6-38.4c-25.6-25.6-38.4-51.2-38.4-89.6 0-32 12.8-64 38.4-89.6l166.4-166.4-160-160c-25.6-25.6-38.4-51.2-38.4-89.6 0-32 12.8-64 38.4-89.6 25.6-25.6 51.2-38.4 89.6-38.4 32 0 64 12.8 89.6 38.4l160 160 160-160c25.6-25.6 51.2-38.4 89.6-38.4 32 0 64 12.8 89.6 38.4 25.6 25.6 38.4 51.2 38.4 89.6 0 32-12.8 64-38.4 89.6l-160 160 166.4 166.4c25.6 25.6 38.4 51.2 38.4 89.6 0 32-12.8 64-38.4 89.6-25.6 25.6-57.6 38.4-89.6 38.4z m-256-275.2c6.4 0 12.8 0 19.2 6.4l185.6 185.6c12.8 12.8 25.6 19.2 44.8 19.2 19.2 0 32-6.4 44.8-19.2 12.8-12.8 19.2-25.6 19.2-44.8s-6.4-32-19.2-44.8l-185.6-185.6c-12.8-12.8-12.8-32 0-38.4l179.2-179.2c12.8-12.8 19.2-25.6 19.2-44.8s-6.4-32-19.2-44.8c-12.8-12.8-25.6-19.2-44.8-19.2-19.2 0-32 6.4-44.8 19.2l-179.2 179.2c-12.8 12.8-32 12.8-38.4 0l-179.2-179.2c-12.8-12.8-25.6-19.2-44.8-19.2s-32 6.4-44.8 19.2c-12.8 12.8-19.2 25.6-19.2 44.8s6.4 32 19.2 44.8l179.2 179.2c12.8 12.8 12.8 32 0 38.4l-185.6 185.6c-12.8 12.8-19.2 25.6-19.2 44.8 0 19.2 6.4 32 19.2 44.8 12.8 12.8 25.6 19.2 44.8 19.2s32-6.4 44.8-19.2l185.6-185.6c6.4 0 12.8-6.4 19.2-6.4z" fill="" p-id="2933"></path></svg>