<?xml version="1.0" standalone="no"?><!DOCTYPE svg PUBLIC "-//W3C//DTD SVG 1.1//EN" "http://www.w3.org/Graphics/SVG/1.1/DTD/svg11.dtd"><svg t="1526630952975" class="icon" style="" viewBox="0 0 1024 1024" version="1.1" xmlns="http://www.w3.org/2000/svg" p-id="3312" xmlns:xlink="http://www.w3.org/1999/xlink" width="200" height="200"><defs><style type="text/css"></style></defs><path d="M843.776 94.208H268.288c-43.008 0-77.824 34.816-77.824 77.824V225.28H163.84c-43.008 0-77.824 34.816-77.824 77.824v522.24c0 57.344 47.104 104.448 104.448 104.448h626.688c57.344 0 104.448-47.104 104.448-104.448V172.032c0-43.008-34.816-77.824-77.824-77.824z m26.624 731.136c0 28.672-22.528 53.248-53.248 53.248H190.464c-28.672 0-53.248-22.528-53.248-53.248V303.104c0-14.336 12.288-26.624 26.624-26.624h26.624V798.72c0 14.336 12.288 26.624 26.624 26.624 14.336 0 26.624-12.288 26.624-26.624V172.032c0-14.336 12.288-26.624 26.624-26.624h575.488c14.336 0 26.624 12.288 26.624 26.624v653.312z" fill="#db4d3d" p-id="3313"></path><path d="M595.968 434.176h208.896c8.192 0 12.288-6.144 12.288-12.288 0-8.192-6.144-12.288-12.288-12.288H595.968c-8.192 0-12.288 6.144-12.288 12.288s4.096 12.288 12.288 12.288zM595.968 354.304h208.896c8.192 0 12.288-6.144 12.288-12.288 0-8.192-6.144-12.288-12.288-12.288H595.968c-8.192 0-12.288 6.144-12.288 12.288 0 8.192 4.096 12.288 12.288 12.288zM595.968 276.48h208.896c8.192 0 12.288-6.144 12.288-12.288 0-8.192-6.144-12.288-12.288-12.288H595.968c-8.192 0-12.288 6.144-12.288 12.288s4.096 12.288 12.288 12.288zM518.144 798.72H309.248c-8.192 0-12.288 6.144-12.288 12.288 0 8.192 6.144 12.288 12.288 12.288h208.896c8.192 0 12.288-6.144 12.288-12.288s-6.144-12.288-12.288-12.288zM518.144 720.896H309.248c-8.192 0-12.288 6.144-12.288 12.288 0 8.192 6.144 12.288 12.288 12.288h208.896c8.192 0 12.288-6.144 12.288-12.288s-6.144-12.288-12.288-12.288zM518.144 643.072H309.248c-8.192 0-12.288 6.144-12.288 12.288 0 8.192 6.144 12.288 12.288 12.288h208.896c8.192 0 12.288-6.144 12.288-12.288s-6.144-12.288-12.288-12.288zM804.864 798.72H595.968c-8.192 0-12.288 6.144-12.288 12.288 0 8.192 6.144 12.288 12.288 12.288h208.896c8.192 0 12.288-6.144 12.288-12.288s-4.096-12.288-12.288-12.288zM804.864 720.896H595.968c-8.192 0-12.288 6.144-12.288 12.288 0 8.192 6.144 12.288 12.288 12.288h208.896c8.192 0 12.288-6.144 12.288-12.288s-4.096-12.288-12.288-12.288zM804.864 643.072H595.968c-8.192 0-12.288 6.144-12.288 12.288 0 8.192 6.144 12.288 12.288 12.288h208.896c8.192 0 12.288-6.144 12.288-12.288s-4.096-12.288-12.288-12.288zM804.864 485.376H309.248c-8.192 0-12.288 6.144-12.288 12.288 0 8.192 6.144 12.288 12.288 12.288h495.616c8.192 0 12.288-6.144 12.288-12.288s-4.096-12.288-12.288-12.288zM804.864 565.248H309.248c-8.192 0-12.288 6.144-12.288 12.288 0 8.192 6.144 12.288 12.288 12.288h495.616c8.192 0 12.288-6.144 12.288-12.288 0-8.192-4.096-12.288-12.288-12.288zM321.536 434.176h182.272c14.336 0 26.624-12.288 26.624-26.624V225.28c0-14.336-12.288-26.624-26.624-26.624h-182.272c-14.336 0-26.624 12.288-26.624 26.624v182.272c0 14.336 12.288 26.624 26.624 26.624z m26.624-184.32h131.072v131.072H348.16v-131.072z" fill="#db4d3d" p-id="3314"></path></svg>