<?xml version="1.0" standalone="no"?><!DOCTYPE svg PUBLIC "-//W3C//DTD SVG 1.1//EN" "http://www.w3.org/Graphics/SVG/1.1/DTD/svg11.dtd"><svg t="1520944787205" class="icon" style="" viewBox="0 0 1024 1024" version="1.1" xmlns="http://www.w3.org/2000/svg" p-id="4840" xmlns:xlink="http://www.w3.org/1999/xlink" width="200" height="200"><defs><style type="text/css"></style></defs><path d="M742.912 722.08c3.84-3.136 8.064-5.76 11.776-9.056 7.424-6.624 11.36-16.352 10.688-26.272l-3.68-50.976 50.528-7.776c9.92-1.536 18.56-7.616 23.296-16.448 29.184-53.984 44.544-115.104 44.544-176.8 0-4.16-0.256-8.256-0.544-12.32l-0.32-4.768c-0.48-9.984-5.6-19.136-13.792-24.8l-42.144-29.12 25.984-45.472c4.896-8.64 5.536-19.072 1.696-28.256-25.984-61.504-68.416-115.072-122.848-154.976-8.16-5.984-18.656-7.744-28.352-4.768l-49.024 15.136L631.68 96.96c-3.648-9.344-11.488-16.448-21.152-19.136-65.504-18.336-131.52-18.336-196.992 0-9.696 2.688-17.536 9.792-21.184 19.136l-18.976 48.448-49.056-15.136C314.656 127.296 304.128 129.056 295.968 135.04 241.504 174.912 199.04 228.512 173.152 289.984 169.28 299.168 169.888 309.632 174.816 318.272l25.92 45.472-42.144 29.12c-8.256 5.696-13.344 14.912-13.792 24.896L144.512 422.72C144.256 426.72 144 430.688 144 434.752c0 61.728 15.392 122.88 44.512 176.8 4.768 8.864 13.376 14.912 23.296 16.448l50.528 7.776-3.712 50.976c-0.736 9.952 3.232 19.648 10.688 26.272 3.552 3.168 7.584 5.664 11.264 8.672l-85.824 140.448c-7.712 12.672-7.2 28.128 1.344 39.36 8.544 11.2 23.328 15.808 37.472 11.776l79.616-22.336 49.408 57.024c7.136 8.192 16.864 12.672 27.008 12.672 2.432 0 4.896-0.288 7.424-0.8 12.672-2.72 22.56-12.064 26.464-25.024l40.928-136.896c3.904-1.472 7.616-3.552 10.752-6.496L512 757.088l36.8 34.272c6.016 5.6 13.824 8.64 21.856 8.64 1.92 0 3.712-0.16 5.6-0.512 40.16-7.136 78.272-21.696 113.696-41.504L736 831.136 716.288 825.6c-15.392-4.416-32.768 0.736-43.328 12.8l-27.296 31.328-4.896-13.6c-5.952-16.672-24.256-25.408-40.896-19.296-16.672 5.984-25.28 24.32-19.296 40.928l21.12 58.752c4.448 12.32 14.496 21.12 27.008 23.456 2.112 0.416 4.352 0.608 6.496 0.608 10.176 0 20-4.512 27.072-12.672l49.856-57.088 80.224 22.368c14.496 4.032 29.248-0.672 37.76-11.968 8.512-11.36 8.832-26.912 0.832-39.552L742.912 722.08zM376.992 866.784l-24.576-28.352c-10.496-12.096-27.968-17.28-43.168-12.896L288.576 831.36l44.992-73.664c21.408 12.032 43.648 22.528 67.04 30.016L376.992 866.784zM533.824 689.984c-12.288-11.424-31.328-11.424-43.616 0l-46.592 43.328c-43.712-10.144-84.672-30.016-120-58.208l4.64-64.16c1.216-16.64-10.56-31.392-27.04-33.952L237.76 567.264c-19.264-40.608-29.504-85.408-29.76-130.72l53.28-36.768c13.632-9.44 17.824-27.744 9.6-42.176L238.496 300.736c19.456-40.224 47.712-75.904 82.784-104.416l61.6 19.008C398.976 220.352 416 212 422.144 196.416l23.84-60.832c44.192-10.08 87.84-10.08 132.064 0l23.872 60.832C608 212 625.088 220.288 641.12 215.328l61.6-19.008c35.104 28.512 63.328 64.192 82.784 104.416l-32.416 56.832c-8.224 14.432-4.032 32.768 9.632 42.176l53.28 36.768c-0.256 45.28-10.496 90.112-29.76 130.72l-63.456 9.792c-16.48 2.528-28.256 17.312-27.04 33.952l4.64 64.16c-35.296 28.192-76.288 48.064-119.936 58.208L533.824 689.984z" p-id="4841" fill="#d81e06"></path><path d="M512 654.016c-122.4 0-222.016-99.552-222.016-222.016S389.6 209.984 512 209.984s222.016 99.584 222.016 222.016S634.4 654.016 512 654.016zM512 273.984c-87.136 0-158.016 70.88-158.016 158.016s70.88 158.016 158.016 158.016c87.136 0 158.016-70.848 158.016-158.016S599.136 273.984 512 273.984z" p-id="4842" fill="#d81e06"></path></svg>