<?xml version="1.0" standalone="no"?><!DOCTYPE svg PUBLIC "-//W3C//DTD SVG 1.1//EN" "http://www.w3.org/Graphics/SVG/1.1/DTD/svg11.dtd"><svg t="1521881276593" class="icon" style="" viewBox="0 0 1024 1024" version="1.1" xmlns="http://www.w3.org/2000/svg" p-id="1998" xmlns:xlink="http://www.w3.org/1999/xlink" width="200" height="200"><defs><style type="text/css"></style></defs><path d="M919.9 262.5L759.5 102C716.3 58.8 651.1 53.8 614 91L85.1 619.8l-18.3 261c-2.8 39.6 34 76.6 73.7 74.2l259.6-16.1L930.9 408c37.2-37.1 32.3-102.3-11-145.5zM161.7 824.2l12.8-137.1 0.2-0.2c33.8 14.3 66.2 35.7 94.5 64.1 29 29 50.7 62.2 65 96.8l-138.9 10.6c-18.1 1.3-35.3-16.2-33.6-34.2z m672.1-475.4L405 777.6c-14.3-33.6-35.6-65.7-63.8-93.8-29.3-29.3-62.9-51.2-98-65.5l430-430c4.6-4.6 12.9-3.9 18.4 1.7l140.5 140.5c5.6 5.4 6.3 13.7 1.7 18.3z" fill="#ffffff" p-id="1999"></path><path d="M712.4 347.2c-20.5-20.5-53.6-20.5-74.1 0L529.1 456.5c-20.5 20.5-20.5 53.6 0 74.1 20.5 20.5 53.6 20.5 74.1 0l109.3-109.3c20.4-20.5 20.4-53.6-0.1-74.1z" fill="#ffffff" p-id="2000"></path></svg>